<svg width="100" height="100" viewBox="0 0 100 100" fill="none" xmlns="http://www.w3.org/2000/svg">
<rect width="100" height="100" rx="8" fill="#3B6C1D"/>
<path d="M39 95L95 75V89C95 92.3137 92.3137 95 89 95H39Z" fill="white"/>
<circle cx="62.8976" cy="16.8166" r="8.81658" fill="white"/>
<circle cx="32.5831" cy="67.6642" r="22.0831" stroke="white" stroke-width="9"/>
<path fill-rule="evenodd" clip-rule="evenodd" d="M35.6649 12.3551C33.5322 11.1039 30.8291 11.4141 29.0353 13.1159L16.3002 25.1979C14.0761 27.308 13.9836 30.8216 16.0937 33.0457C18.2038 35.2699 21.7174 35.3624 23.9415 33.2523L33.6479 24.0437L39.0704 27.2249L28.8318 40.1451C27.86 41.3714 27.4509 42.9509 27.7051 44.4947C28.7015 50.5469 42.6522 49.144 45.9176 56.0014L62.3972 56.0014L60.6325 76.422C60.3685 79.4764 62.6306 82.1665 65.6851 82.4305C68.7395 82.6945 71.4296 80.4323 71.6936 77.3779L73.9794 50.9281C74.1133 49.3785 73.591 47.8439 72.5396 46.6977C71.4882 45.5515 70.0042 44.899 68.4488 44.899H53.4722L61.623 35.0501C62.6607 33.7963 63.0959 32.1502 62.8134 30.5474C62.5309 28.9445 61.5592 27.5464 60.1554 26.7228L35.6649 12.3551Z" fill="white"/>
</svg>
