<svg width="100" height="100" viewBox="0 0 100 100" fill="none" xmlns="http://www.w3.org/2000/svg">
<rect width="100" height="100" rx="8" fill="#ABABAB"/>
<path opacity="0.3" fill-rule="evenodd" clip-rule="evenodd" d="M79.5355 17.3835C79.5355 22.0136 75.7821 25.767 71.152 25.767C66.5219 25.767 62.7685 22.0136 62.7685 17.3835C62.7685 12.7534 66.5219 9 71.152 9C75.7821 9 79.5355 12.7534 79.5355 17.3835ZM43.2773 82.0109C52.2671 82.0109 59.5547 74.7233 59.5547 65.7336C59.5547 61.4486 57.8989 57.5503 55.1923 54.6436H55.006C54.9371 54.499 54.8633 54.3583 54.7847 54.2213C51.8393 51.2771 47.771 49.4562 43.2773 49.4562C34.2876 49.4562 27 56.7439 27 65.7336C27 74.7233 34.2876 82.0109 43.2773 82.0109ZM65.9984 54.6436L70.6761 54.6436L68.9981 74.0611C68.7471 76.9656 70.8981 79.5235 73.8025 79.7745C76.7069 80.0255 79.2649 77.8745 79.5159 74.9701L81.6894 49.8195C81.8167 48.3461 81.3201 46.8868 80.3203 45.7969C79.3206 44.707 77.9095 44.0866 76.4305 44.0866H62.1896L69.94 34.7214C70.9267 33.5292 71.3405 31.964 71.0719 30.4399C70.8032 28.9157 69.8793 27.5863 68.5445 26.8032L45.2569 13.1412C43.229 11.9514 40.6586 12.2464 38.9529 13.8646L26.8434 25.3532C24.7285 27.3596 24.6406 30.7006 26.647 32.8155C28.6535 34.9304 31.9945 35.0183 34.1094 33.0119L43.339 24.2556L48.4952 27.2806L38.7594 39.5662C38.4084 40.0091 38.1346 40.5005 37.9433 41.0201C26.5446 43.4686 18 53.6032 18 65.7336C18 79.6939 29.317 91.0109 43.2773 91.0109C57.2376 91.0109 68.5547 79.6939 68.5547 65.7336C68.5547 61.7554 67.6357 57.9918 65.9984 54.6436Z" fill="white"/>
<path d="M53.4 57.4188C53.4 58.3767 52.6835 59.2082 51.7256 59.2082H48.1938C47.0654 59.2082 46.16 58.2261 46.16 57.0976C46.16 53.9318 46.64 52.0965 47.92 50.3071C48.88 49.0224 49.2 48.7471 52.04 46.7741C54 45.4435 54.64 44.48 54.64 42.9659C54.64 40.8094 53.24 39.5247 50.84 39.5247C49.04 39.5247 47.72 40.2588 46.96 41.6812C46.1906 43.0933 44.9453 44.3358 43.347 44.1578L42.0205 44.0101C39.8074 43.7636 38.0901 41.7094 38.846 39.6149C39.2474 38.5026 39.7911 37.563 40.56 36.5882C42.88 33.56 46.44 32 51.04 32C58.4 32 63 35.9918 63 42.3235C63 45.1224 62.2 47.2788 60.52 49.0682C59.56 50.0777 59.16 50.3988 55.68 52.8765C54 54.1153 53.4 55.3082 53.4 57.4188ZM45.8 65.25C45.8 63.1789 47.4789 61.5 49.55 61.5H50.09C52.1611 61.5 53.84 63.1789 53.84 65.25C53.84 67.3211 52.1611 69 50.09 69H49.55C47.4789 69 45.8 67.3211 45.8 65.25Z" fill="white"/>
</svg>
